<?xml version="1.0" encoding="utf-8"?>
<!-- Generator: Adobe Illustrator 24.1.0, SVG Export Plug-In . SVG Version: 6.00 Build 0)  -->
<svg version="1.1" id="Layer_1" xmlns="http://www.w3.org/2000/svg" xmlns:xlink="http://www.w3.org/1999/xlink" x="0px" y="0px"
	 viewBox="0 0 116.3506012 33.4490356" enable-background="new 0 0 116.3506012 33.4490356" xml:space="preserve">
<rect fill="#FFFFFF" width="110.6129837" height="33.4490356"/>
<path d="M0,33.4490356h110.5399323V0H0V33.4490356z M0.8933105,0.9968262h30.0986786V24.628479H0.8933105V0.9968262z
	 M97.1550446,32.4923706H0.8933258v-6.9986572h96.2617188V32.4923706z M109.5845337,32.4923706H98.0413055v-6.9986572h11.5432281
	V32.4923706z M109.5845337,24.612793H31.9387512V0.9945068h77.6457825V24.612793z"/>
<path d="M113.919693,27.9774475c1.3537292,0,2.4309082,1.1049194,2.4309082,2.4851074
	c0,1.4014587-1.077179,2.4945679-2.4419098,2.4945679c-1.3513641,0-2.450531-1.0931091-2.450531-2.4945679
	c0-1.380188,1.0991669-2.4851074,2.450531-2.4851074H113.919693z M113.9086914,28.3638916
	c-1.0873718,0-1.9783478,0.940094-1.9783478,2.0986633c0,1.1806335,0.890976,2.1088867,1.9893494,2.1088867
	c1.101532,0.0102539,1.9807129-0.9282532,1.9807129-2.0986328c0-1.1688232-0.8791809-2.1089172-1.9807129-2.1089172H113.9086914z
	 M113.4475098,31.9089661h-0.4384155v-2.7705994c0.2294159-0.033905,0.4509735-0.0678101,0.7793884-0.0678101
	c0.4187775,0,0.6921844,0.0891113,0.8579712,0.2113647c0.1641998,0.1206665,0.2537689,0.3083496,0.2537689,0.5733643
	c0,0.3635559-0.2427673,0.5851746-0.5389709,0.6735229v0.0228577c0.2411957,0.0426025,0.406189,0.2626343,0.4611969,0.6727295
	c0.0667725,0.4306335,0.1319885,0.595459,0.1767731,0.6845703h-0.4627686
	c-0.0659943-0.0891113-0.1319885-0.3430786-0.1877747-0.7066345c-0.0659943-0.3533325-0.2419891-0.4850464-0.5931854-0.4850464
	h-0.3079834V31.9089661z M113.4475098,30.3734131h0.318985c0.3629761,0,0.6717529-0.1316833,0.6717529-0.474762
	c0-0.2429199-0.1759949-0.4842529-0.6717529-0.4842529c-0.1422119,0-0.2412109,0.0102539-0.318985,0.0220947V30.3734131z"/>
<g>
	<path d="M103.7675171,26.9330139c-2.7742462,0-5.0228729,1.0158081-5.0228729,2.268219
		c0,1.2532043,2.2486267,2.2697754,5.0228729,2.2697754c2.7718811,0,5.0205078-1.016571,5.0205078-2.2697754
		C108.7880249,27.948822,106.5393982,26.9330139,103.7675171,26.9330139 M108.4320984,29.0426941h-0.9208069
		c-0.0620728-0.5418091-0.439209-1.0299988-1.0190277-1.3998718
		C107.5764923,27.9685364,108.3134613,28.4795837,108.4320984,29.0426941 M107.1695099,29.0426941h-1.1518097
		c-0.0447845-0.6388245-0.348053-1.2050781-0.8115997-1.5899353
		C106.290329,27.7382507,107.0665894,28.3360596,107.1695099,29.0426941 M103.7675171,31.131897
		c-1.0630341,0-1.9249268-0.8635864-1.9249268-1.9306641c0-1.0662842,0.8618927-1.9298706,1.9249268-1.9298706
		c1.0614471,0,1.9233398,0.8635864,1.9233398,1.9298706C105.6908569,30.2683105,104.8289642,31.131897,103.7675171,31.131897
		 M101.5149689,29.0426941h-1.1526031c0.1029205-0.7066345,0.8783875-1.3044434,1.9634247-1.5899353
		C101.8630219,27.837616,101.5581818,28.4038696,101.5149689,29.0426941 M101.0404053,27.6428223
		c-0.5806122,0.369873-0.956955,0.8580627-1.0190277,1.3998718h-0.9208221
		C99.2191925,28.4795837,99.9553833,27.9685364,101.0404053,27.6428223 M99.1029205,29.380249h0.9208221
		c0.0691376,0.5331421,0.442337,1.0142212,1.0166626,1.3809509C99.9671631,30.4378662,99.2341309,29.9362793,99.1029205,29.380249
		 M100.3639374,29.380249h1.1518097c0.0479279,0.6309509,0.3519897,1.190094,0.8100433,1.569458
		C101.2494049,30.6665649,100.4794312,30.0782166,100.3639374,29.380249 M106.0177002,29.380249h1.150238
		c-0.1139221,0.6979675-0.8854523,1.2863159-1.9634094,1.569458C105.6641541,30.570343,105.9682007,30.0112,106.0177002,29.380249
		 M106.4922638,30.7612c0.5743256-0.3667297,0.947525-0.8478088,1.0166626-1.3809509h0.9200287
		C108.2985382,29.9362793,107.5639191,30.4378662,106.4922638,30.7612"/>
	<path d="M103.4929199,29.2018433c0-0.1466675,0.1178436-0.2665405,0.2655487-0.2665405
		c0.144577,0,0.2639923,0.119873,0.2639923,0.2665405c0,0.146698-0.1194153,0.2658081-0.2639923,0.2658081
		C103.6107635,29.4676514,103.4929199,29.3485413,103.4929199,29.2018433"/>
	<path d="M103.7675934,28.0361938l0.3535461-0.353302c-0.2176361-0.2184753-0.4926147-0.2184753-0.7102509,0L103.7675934,28.0361938
		z"/>
	<path d="M104.04776,28.4511719c0-0.2720642,0.2215576-0.4936829,0.4926147-0.4936829
		c0.2734222,0,0.49263,0.2216187,0.49263,0.4936829c0,0.2728882-0.2192078,0.4945068-0.49263,0.4945068
		C104.2693176,28.9456787,104.04776,28.7240601,104.04776,28.4511719"/>
	<path d="M102.4940033,28.4511719c0-0.2720642,0.2207642-0.4936829,0.4933929-0.4936829
		c0.2702789,0,0.4902802,0.2216187,0.4902802,0.4936829c0,0.2728882-0.2200012,0.4945068-0.4902802,0.4945068
		C102.7147675,28.9456787,102.4940033,28.7240601,102.4940033,28.4511719"/>
	<path d="M102.5223694,29.9796143c0-0.2720642,0.2207642-0.4936829,0.4918365-0.4936829
		c0.2710571,0,0.4926147,0.2216187,0.4926147,0.4936829c0,0.2720947-0.2215576,0.4937134-0.4926147,0.4937134
		C102.7431335,30.4733276,102.5223694,30.251709,102.5223694,29.9796143"/>
	<path d="M104.0069885,29.9712524c0-0.2744446,0.2207642-0.4952698,0.4918365-0.4952698
		c0.273407,0,0.4941864,0.2208252,0.4941864,0.4952698c0,0.2713318-0.2207794,0.4929199-0.4941864,0.4929199
		C104.2277527,30.4641724,104.0069885,30.2425842,104.0069885,29.9712524"/>
	<path d="M103.7584839,30.3544006l-0.3567047,0.354126c0.2176361,0.2192383,0.4926147,0.2192383,0.7102509,0L103.7584839,30.3544006
		z"/>
	<path d="M104.893158,29.2040405l0.3519745,0.3565063c0.2200012-0.2192688,0.2200012-0.4937134,0-0.7121887L104.893158,29.2040405z"
		/>
	<path d="M102.6021881,29.2040405l-0.3512115,0.3565063c-0.2184143-0.2192688-0.2184143-0.4937134,0-0.7121887
		L102.6021881,29.2040405z"/>
</g>
<g>
	<path d="M29.6338654,30.8773804h-0.9773865l-0.2380676-0.8588562h-1.2555084l-0.2435608,0.8588562h-0.7943268l1.242157-4.182312
		h1.051239L29.6338654,30.8773804z M28.2102203,29.2503357l-0.4124908-1.4700623l-0.413269,1.4700623H28.2102203z"/>
	<rect x="30.0389709" y="26.6947632" width="0.8304596" height="4.18396"/>
	<rect x="31.5309753" y="26.6947632" width="0.8296814" height="4.18396"/>
	<path d="M37.9702759,30.8773804h-0.9773865L36.7556,30.0185242h-1.2547302l-0.2427673,0.8588562h-0.7982635l1.2453156-4.182312
		H36.7556L37.9702759,30.8773804z M36.5458374,29.2503357l-0.4124908-1.4700623l-0.4140472,1.4700623H36.5458374z"/>
	<path d="M39.6075439,27.7199402c0.2600708,0,0.5146332,0.0410156,0.7628937,0.1340637
		c0.0565796-0.4700317,0.2200012-0.604126,0.649765-0.604126c0.079361,0,0.1532135,0.0055237,0.2325592,0.025238v0.5788879
		c-0.0738525-0.0126038-0.1469116-0.0315552-0.2207794-0.0315552c-0.1579132,0-0.3111267,0.0796814-0.3346863,0.2689514
		c0.1587067,0.1900635,0.2278442,0.3414917,0.2278442,0.6033325c0,0.7318726-0.7291107,0.9456177-1.2790985,0.9456177
		c-0.1579132,0-0.3307648-0.018158-0.480835-0.0426025c-0.0785675,0.0489197-0.1390686,0.12146-0.1390686,0.2247925
		c0,0.1293335,0.0550079,0.2011108,0.16185,0.2389526c0.1469269,0.0426025,0.4549103,0.0552063,0.6159821,0.06073
		l0.3629761,0.0189209c0.5028381,0.0291748,1.0693207,0.1459045,1.0693207,0.8226013
		c0,0.414032-0.2789154,0.6955872-0.6073303,0.8414917c-0.3095551,0.1403809-0.7173309,0.1640625-1.0551758,0.1640625
		c-0.4604034,0-1.4810028-0.018158-1.4810028-0.7192688c0-0.3170471,0.2364807-0.4992371,0.4965515-0.5607605
		c-0.2207794-0.1167297-0.3669128-0.2799683-0.3669128-0.5552063c0-0.3833008,0.2867737-0.5607605,0.5766907-0.6877441
		c-0.311142-0.1293335-0.5091248-0.3856506-0.5091248-0.7571106C38.2899628,27.9391785,39.0489349,27.7199402,39.6075439,27.7199402
		 M40.1371002,30.9093018c-0.197998-0.0181274-0.7440491-0.0181274-1.1227417-0.0488892
		c-0.1021423,0.0426025-0.181488,0.1277771-0.181488,0.2492371c0,0.1466675,0.0911407,0.2137146,0.2089844,0.25
		c0.1807098,0.0552063,0.4399872,0.06073,0.6214752,0.06073c0.2042847,0,0.7809753,0.0181274,0.7809753-0.2981262
		C40.4443054,30.957428,40.257309,30.9211426,40.1371002,30.9093018 M39.1369324,28.6765747
		c0,0.3052368,0.181488,0.4692688,0.4588318,0.4692688c0.2718506,0,0.4973297-0.1577148,0.4973297-0.473999
		c0-0.3122864-0.2372742-0.4589844-0.4973297-0.4589844C39.3309937,28.2128601,39.1369324,28.3840027,39.1369324,28.6765747"/>
	<path d="M42.2896423,29.4814453l-0.0062866,0.1522217c0,0.3659363,0.1924896,0.6648254,0.5546875,0.6648254
		c0.2522125,0,0.5083313-0.2011108,0.5083313-0.4873962l0.7684021,0.0599365c0,0.1530151-0.3347015,1.0678711-1.3065796,1.0678711
		c-0.857193,0-1.4181671-0.646698-1.4181671-1.5662842c0-0.914856,0.5028381-1.6522827,1.3969421-1.6522827
		c0.4006958,0,0.8131866,0.1947937,1.0520325,0.5473328c0.2357025,0.3549194,0.2993469,0.7934265,0.2930603,1.2137756H42.2896423z
		 M43.3016052,28.9506531c-0.01651-0.3343811-0.1178589-0.6451111-0.4800568-0.6451111
		c-0.3684845,0-0.5083313,0.2926025-0.5381927,0.6451111H43.3016052z"/>
	<path d="M46.2317963,28.7070923c-0.0730743-0.292572-0.2867889-0.4132385-0.5594177-0.4132385
		c-0.1712799,0-0.4297638,0.0473022-0.4297638,0.2736511c0,0.5788879,1.7245789-0.0796509,1.7245789,1.3162842
		c0,0.3233643-0.1406403,0.6112366-0.384201,0.7997131c-0.2600708,0.1948242-0.5759125,0.2555542-0.8933258,0.2555542
		c-0.5986938,0-1.1588745-0.2184753-1.3105164-0.914856l0.7165375-0.1096497
		c0.0581512,0.3170471,0.3684845,0.4156494,0.6332703,0.4156494c0.1587067,0,0.5028381-0.0615234,0.5028381-0.2926025
		c0-0.2082214-0.1681366-0.2445068-0.3221436-0.2626343c-0.1972046-0.0244446-0.6733246-0.1159363-0.8548126-0.1821899
		c-0.3370667-0.1293335-0.5633392-0.4463806-0.5633392-0.8375549c0-0.7610779,0.6151886-1.0355225,1.2272339-1.0355225
		c0.5641174,0,0.9326019,0.2318726,1.1306,0.8107605L46.2317963,28.7070923z"/>
	<path d="M52.4293976,30.8773804h-0.976593l-0.2388611-0.8588562h-1.2547302l-0.2435608,0.8588562h-0.795105l1.242157-4.182312
		h1.051239L52.4293976,30.8773804z M51.0057526,29.2503357l-0.4124908-1.4700623l-0.4124756,1.4700623H51.0057526z"/>
	<path d="M54.5023499,30.8783875v-0.4818726h-0.0125732c-0.1579132,0.3296814-0.3959808,0.5426025-0.7628937,0.5426025
		c-0.8084717,0-1.0339508-0.8533325-1.0339508-1.5726013c0-0.7381897,0.2136993-1.6467285,1.051239-1.6467285
		c0.3229065,0,0.5366211,0.103302,0.7173309,0.3895874v-1.414856h0.8320313v4.1838684H54.5023499z M54.4615021,29.1582947
		c0-0.2973022-0.0227966-0.81073-0.4014893-0.81073c-0.4737701,0-0.4910583,0.6711426-0.4910583,1.0426025
		c0,0.3359985,0.0447845,0.9030457,0.4564819,0.9030457c0.1532135,0,0.294632-0.1104126,0.3621979-0.2500305
		c0.0683594-0.1403809,0.0738678-0.3059998,0.0738678-0.457428V29.1582947z"/>
	<path d="M56.6643982,27.7801819v0.4763794h0.0109863c0.1453552-0.3659363,0.4242706-0.5370789,0.7974701-0.5370789
		c0.3771362,0,0.6151886,0.1711426,0.7848969,0.5370789c0.1477051-0.3659363,0.4816284-0.5370789,0.8367462-0.5370789
		c0.2553558,0,0.5319061,0.0977783,0.7000427,0.3170471c0.1932831,0.2436829,0.1532135,0.5978088,0.1532135,0.9093323v1.9322205
		h-0.8296814v-1.6404114c0-0.12146,0.0102234-0.4266968-0.0180664-0.5426025
		c-0.045578-0.1948242-0.1807098-0.2500305-0.3559113-0.2500305c-0.1477051,0-0.2993469,0.0914917-0.3614197,0.2381897
		c-0.062851,0.146698-0.0565643,0.3895874-0.0565643,0.5544434v1.6404114h-0.8320465v-1.6404114
		c0-0.3225708,0.0573578-0.7989197-0.3716278-0.7989197c-0.4368286,0-0.4187622,0.4629211-0.4187622,0.7989197v1.6404114h-0.8312531
		v-3.0979004H56.6643982z"/>
	<path d="M61.3908081,27.5009155h-0.8304749v-0.8660278h0.8304749V27.5009155z M61.3908081,30.8787231h-0.8304749v-3.0986328
		h0.8304749V30.8787231z"/>
	<path d="M63.6847839,28.487854h-0.6152039v1.2319031c0,0.4085388,0.0275116,0.4992371,0.3826294,0.4992371
		c0.0754242,0,0.183075-0.0118408,0.2789154-0.0236511v0.6766663c-0.1649933,0.043396-0.367691,0.0670471-0.5209045,0.0670471
		c-0.2372742,0-0.5531158-0.0362854-0.7408905-0.2011108c-0.231781-0.2058411-0.231781-0.5788879-0.231781-0.8833008V28.487854
		h-0.4682617v-0.7129517h0.5020447l0.074646-0.9101257l0.7236023-0.0599365v0.9700623h0.6152039V28.487854z"/>
	<path d="M65.8538818,28.487854h-0.6159821v1.2319031c0,0.4085388,0.0274963,0.4992371,0.3834076,0.4992371
		c0.0754242,0,0.1838531-0.0118408,0.2773438-0.0236511v0.6766663c-0.16185,0.043396-0.3669128,0.0670471-0.5201111,0.0670471
		c-0.2357025,0-0.5539093-0.0362854-0.7393341-0.2011108c-0.2325592-0.2058411-0.2325592-0.5788879-0.2325592-0.8833008V28.487854
		h-0.4690552v-0.7129517h0.5020599l0.0754242-0.9101257l0.7228241-0.0599365v0.9700623h0.6159821V28.487854z"/>
	<path d="M67.1192169,29.4814453l-0.0062866,0.1522217c0,0.3659363,0.1917114,0.6648254,0.5531158,0.6648254
		c0.2545624,0,0.509903-0.2011108,0.509903-0.4873962l0.7676239,0.0599365c0,0.1530151-0.3331299,1.0678711-1.304245,1.0678711
		c-0.8610992,0-1.4205017-0.646698-1.4205017-1.5662842c0-0.914856,0.5044098-1.6522827,1.3969421-1.6522827
		c0.4006958,0,0.8131714,0.1947937,1.0520172,0.5473328c0.236496,0.3549194,0.2985687,0.7934265,0.2938538,1.2137756H67.1192169z
		 M68.1296082,28.9506531c-0.01651-0.3343811-0.1186523-0.6451111-0.4800568-0.6451111
		c-0.3677063,0-0.509903,0.2926025-0.5366211,0.6451111H68.1296082z"/>
	<path d="M71.1313782,30.8783875v-0.4818726h-0.0141449c-0.1563416,0.3296814-0.3952026,0.5426025-0.7621155,0.5426025
		c-0.8092499,0-1.0363007-0.8533325-1.0363007-1.5726013c0-0.7381897,0.2168427-1.6467285,1.0543823-1.6467285
		c0.3205566,0,0.5366211,0.103302,0.7173309,0.3895874v-1.414856h0.8296661v4.1838684H71.1313782z M71.0905304,29.1582947
		c0-0.2973022-0.0235748-0.81073-0.4022827-0.81073c-0.4745483,0-0.4910431,0.6711426-0.4910431,1.0426025
		c0,0.3359985,0.0455627,0.9030457,0.4572601,0.9030457c0.1532135,0,0.2938538-0.1104126,0.3621979-0.2500305
		c0.0675812-0.1403809,0.0738678-0.3059998,0.0738678-0.457428V29.1582947z"/>
</g>
<g>
	<path d="M52.2203369,9.4989929V8.1984863h2.5990295v3.7288208h-0.6733246l-0.2113495-0.8028564
		c-0.4706268,0.6301575-0.9852448,0.9046021-1.7245789,0.9046021c-1.851059,0-2.6163177-1.6964111-2.6163177-3.5253601
		c0-1.8912048,0.8398895-3.6467896,2.7459564-3.6467896c1.3647308,0,2.2863312,0.913269,2.4796143,2.3865051l-1.4024506,0.2137451
		c-0.0636292-0.7011414-0.4046173-1.2910767-1.11409-1.2910767c-1.0402374,0-1.1973724,1.4937439-1.1973724,2.3565674
		c0,0.9053955,0.2301941,2.1861877,1.261795,2.1861877c0.64505,0,1.0873871-0.4984436,1.0496674-1.2098389H52.2203369z"/>
	<polygon points="57.4983978,6.3085022 57.4983978,7.7202454 59.8947144,7.7202454 59.8947144,9.0317993 57.4983978,9.0317993 
		57.4983978,10.5752258 60.5389862,10.5752258 60.5389862,11.9277954 56.0244446,11.9277954 56.0244446,4.9575195 
		60.5389862,4.9575195 60.5389862,6.3085022 	"/>
	<polygon points="66.2866364,11.9282532 65.0232544,11.9282532 62.5994263,7.2443542 62.5625,7.2443542 62.5625,11.9282532 
		61.4201202,11.9282532 61.4201202,4.9572144 63.014267,4.9572144 65.1246033,9.052002 65.1442413,9.052002 65.1442413,4.9572144 
		66.2866364,4.9572144 	"/>
	<polygon points="69.0303955,6.3085022 69.0303955,7.7202454 71.426712,7.7202454 71.426712,9.0317993 69.0303955,9.0317993 
		69.0303955,10.5752258 72.0709839,10.5752258 72.0709839,11.9277954 67.5548706,11.9277954 67.5548706,4.9575195 
		72.0709839,4.9575195 72.0709839,6.3085022 	"/>
	<path d="M74.4549866,11.9269104h-1.4747314V4.956665h2.6650391c0.5609741,0,1.1321564,0.0110474,1.6208496,0.3556824
		c0.5162048,0.3761902,0.8021851,1.0576172,0.8021851,1.7382202c0,0.7926331-0.4156189,1.5245056-1.096817,1.7981873
		l1.1706696,3.0781555h-1.6412811L75.5337219,9.174469h-1.0787354V11.9269104z M74.4549866,7.974884h0.8100281
		c0.3048401,0,0.63797,0.0307617,0.905899-0.1419373c0.2364807-0.1624756,0.367691-0.4881897,0.367691-0.7926331
		c0-0.2744446-0.1477051-0.569397-0.3606262-0.7113647c-0.2474823-0.1727295-0.6725464-0.1317139-0.9490967-0.1317139h-0.7738953
		V7.974884z"/>
	<path d="M84.2943726,11.9271545h-1.5933533l-0.3865662-1.4322205h-2.0459137l-0.396759,1.4322205h-1.2987366l2.0262756-6.9702759
		h1.7151337L84.2943726,11.9271545z M81.9719086,9.2141113l-0.6717682-2.4480286l-0.674118,2.4480286H81.9719086z"/>
	<polygon points="89.0192413,10.5449829 89.0192413,11.9283142 85.0020447,11.9283142 85.0020447,4.9572754 86.4759827,4.9572754 
		86.4759827,10.5449829 	"/>
	<path d="M51.5680542,21.4104309h-1.5941467l-0.3865509-1.4322205h-2.0459137l-0.3983459,1.4322205h-1.2987366l2.0262756-6.9694824
		h1.7167206L51.5680542,21.4104309z M49.2455902,18.6973877l-0.6733398-2.4480286l-0.674118,2.4480286H49.2455902z"/>
	<path d="M57.2689819,18.6572571c0,0.7626648,0.0102081,1.5552673-0.5146332,2.1239014
		c-0.5083313,0.5583801-1.2531586,0.7318726-1.9461365,0.7318726c-0.662323,0-1.4275818-0.1127625-1.9343414-0.6009521
		c-0.6277618-0.5993958-0.6552582-1.4006653-0.6552582-2.2548218v-4.2177734h1.6043549v4.2177734
		c0,0.3249512-0.0102081,0.7926331,0.1382904,1.0773315c0.1932678,0.3651733,0.5892639,0.4676819,0.9483185,0.4676819
		c0.294632,0,0.7283173-0.1025085,0.9137421-0.3753967c0.2011414-0.3154602,0.1752014-0.8036499,0.1752014-1.1696167v-4.2177734
		h1.270462V18.6572571z"/>
	<path d="M60.2604523,14.4414978c0.9121704,0,1.6947174,0.0591431,2.3861084,0.7815857
		c0.6827545,0.7121582,0.9773865,1.6759033,0.9773865,2.6814575c0,0.9361572-0.2584839,1.8399658-0.8218231,2.5403137
		c-0.6246185,0.7618408-1.399292,0.9661255-2.2926178,0.9661255h-2.0812683v-6.9694824H60.2604523z M59.9013977,20.0993958
		h0.4973297c0.6167603,0,1.0135345-0.1316833,1.3553009-0.7421265c0.2482758-0.4455872,0.3519897-0.9834595,0.3519897-1.5024109
		c0-0.5489197-0.1508484-1.1380615-0.4533386-1.5749817c-0.3417816-0.4873962-0.719696-0.5591431-1.2445221-0.5591431h-0.5067596
		V20.0993958z"/>
	<rect x="64.6073914" y="14.4396973" width="1.4763031" height="6.9710693"/>
	<polygon points="68.8730316,15.7921753 68.8730316,17.2047119 71.2685699,17.2047119 71.2685699,18.5154724 68.8730316,18.5154724 
		68.8730316,20.0596924 71.91362,20.0596924 71.91362,21.410675 67.3975067,21.410675 67.3975067,14.4403992 71.91362,14.4403992 
		71.91362,15.7921753 	"/>
	<polygon points="77.6621399,21.4106445 76.3995361,21.4106445 73.9765015,16.7267456 73.9372101,16.7267456 73.9372101,21.4106445 
		72.7971954,21.4106445 72.7971954,14.4403992 74.3913422,14.4403992 76.5009003,18.5351868 76.5197449,18.5351868 
		76.5197449,14.4403992 77.6621399,14.4403992 	"/>
	<path d="M82.4982452,17.1435547c-0.0102234-0.7720947-0.2498474-1.4945068-1.0598907-1.4945068
		c-1.0426025,0-1.1439514,1.5047607-1.1439514,2.3478699c0,0.9542847,0.1013489,2.1846008,1.2170258,2.1846008
		c0.6921844,0,1.0127411-0.6403809,1.0952301-1.3107605l1.440155,0.1025391
		c-0.1587067,1.5938721-1.1541595,2.5402832-2.6084595,2.5402832c-1.8801422,0-2.7931061-1.6877441-2.7931061-3.5876465
		c0-1.9306641,0.9404602-3.5868835,2.8378906-3.5868835c1.5862885,0,2.39711,1.0158081,2.5636749,2.6933289L82.4982452,17.1435547z"
		/>
	<polygon points="86.5394745,15.7921753 86.5394745,17.2047119 88.9365845,17.2047119 88.9365845,18.5154724 86.5394745,18.5154724 
		86.5394745,20.0596924 89.5816193,20.0596924 89.5816193,21.410675 85.0655212,21.410675 85.0655212,14.4403992 
		89.5816193,14.4403992 89.5816193,15.7921753 	"/>
	<path d="M93.6611328,16.4321899c-0.183075-0.5899048-0.5256348-0.8225708-1.0889587-0.8225708
		c-0.3952026,0-0.8752594,0.1112061-0.8752594,0.6498718c0,0.5079041,0.5547028,0.629364,0.9121857,0.7003479
		c0.5154114,0.1222229,1.2075958,0.2649841,1.6499329,0.5891113c0.5161896,0.3769836,0.8288879,0.9558716,0.8288879,1.646759
		c0,0.680603-0.294632,1.3312683-0.7833252,1.7468872c-0.5059814,0.4377136-1.1958008,0.5702209-1.8329926,0.5702209
		c-1.1879578,0-2.2666931-0.5702209-2.5526733-1.932251l1.3647156-0.344635
		c0.183075,0.7318726,0.6631165,0.9858398,1.316803,0.9858398c0.4242706,0,0.9876099-0.1727295,0.9876099-0.7516174
		c0-0.5796814-0.7196808-0.6908569-1.1070251-0.7823486c-1.1235199-0.2539673-2.2313385-0.6199036-2.2313385-2.1444092
		c0-0.6498413,0.231781-1.2192688,0.6819763-1.6356812c0.4627686-0.4266663,1.005661-0.568634,1.5886383-0.568634
		c1.1038818,0,2.0066376,0.4266663,2.3939819,1.6356812L93.6611328,16.4321899z"/>
</g>
<path display="none" d="M19.5784912,16.0394897c-0.1712799-0.7405396-0.7809753-0.7437134-1.6790161-1.0110474
	c-1.7787781-0.2334595-2.2132568-1.7035522-0.2372742-1.8084412h2.9156647
	c1.5580139-0.0165405,5.0079346-0.0701904,5.9955444-0.0236511c1.7944946,0.033905,2.1857605,1.2326965,0.0141449,1.7705688
	c-0.5704041,0.1403809-1.5100861,0.6277771-1.5289459,1.6719666c-0.0070648,0.5544434,0,3.9583435,0,3.9583435
	s-0.9538116,2.2729492-10.2774963,2.1175842c-5.7449036-0.1206665-9.7888107-0.2728882-10.0205841-9.1138611
	C4.7314606,2.1384277,12.4822083,3.4389343,15.4976501,3.2267761c4.276474,0.06073,6.5172272,0.5536499,7.7609711,0.9826965
	c1.9233398,0.6325073,2.0042725,1.4976807,2.032547,3.0608215c0.0259399,1.5741882-0.3496246,3.0489807-2.2533264,3.1239014
	c-2.669754,0.2129517-2.8740234-0.8919678-3.0633698-1.8872681c-0.3959808-2.9472656-0.6026154-3.1065674-4.0195465-3.131012
	c-4.9568787-0.0331421-5.5060577,2.4006958-5.3889923,7.890625c0.0879974,4.1420898,0.1728516,7.1469116,5.0142212,7.0861816
	c2.588028,0.0055237,4.0493927-0.1687622,4.0493927-1.9188232C19.6295471,18.4338989,19.7639008,16.8612976,19.5784912,16.0394897"
	/>
<path fill="#006838" d="M19.5784912,16.0394897c-0.1712799-0.7405396-0.7809753-0.7437134-1.6790161-1.0110474
	c-1.7787781-0.2334595-2.2132568-1.7035522-0.2372742-1.8084412h2.9156647
	c1.5580139-0.0165405,5.0079346-0.0701904,5.9955444-0.0236511c1.7944946,0.033905,2.1857605,1.2326965,0.0141449,1.7705688
	c-0.5704041,0.1403809-1.5100861,0.6277771-1.5289459,1.6719666c-0.0070648,0.5544434,0,3.9583435,0,3.9583435
	s-0.9538116,2.2729492-10.2774963,2.1175842c-5.7449036-0.1206665-9.7888107-0.2728882-10.0205841-9.1138611
	C4.7314606,2.1384277,12.4822083,3.4389343,15.4976501,3.2267761c4.276474,0.06073,6.5172272,0.5536499,7.7609711,0.9826965
	c1.9233398,0.6325073,2.0042725,1.4976807,2.032547,3.0608215c0.0259399,1.5741882-0.3496246,3.0489807-2.2533264,3.1239014
	c-2.669754,0.2129517-2.8740234-0.8919678-3.0633698-1.8872681c-0.3959808-2.9472656-0.6026154-3.1065674-4.0195465-3.131012
	c-4.9568787-0.0331421-5.5060577,2.4006958-5.3889923,7.890625c0.0879974,4.1420898,0.1728516,7.1469116,5.0142212,7.0861816
	c2.588028,0.0055237,4.0493927-0.1687622,4.0493927-1.9188232C19.6295471,18.4338989,19.7639008,16.8612976,19.5784912,16.0394897"
	/>
<g>
</g>
<g>
</g>
<g>
</g>
<g>
</g>
<g>
</g>
<g>
</g>
</svg>
